PathFileType	4	(X/Y/Z)	s06c0403.trc
DataRate	CameraRate	NumFrames	NumMarkers	Units	OrigDataRate	OrigDataStartFrame	OrigNumFrames
200	200	6	48	mm	200	500	2000
Frame#	Time	racr			lacr			c7			jug			rlel			rdr			llel			ldr			s2			lic			ric			lasi			rasi			rpsi			lpsi			rgt			lgt			rth1			rth2			rth3			rth4			rlfc			rmfc			rsh1			rsh2			rsh3			rsh4			rlmal			rcal			rtoe			rmt5			lth1			lth2			lth4			lth3			llfc			lmfc			llmal			lcal			lmt5			lsh1			lsh2			lsh3			lsh4			ltoe			SBIKE			LBIKE			RBIKE			
		X1	Y1	Z1	X2	Y2	Z2	X3	Y3	Z3	X4	Y4	Z4	X5	Y5	Z5	X6	Y6	Z6	X7	Y7	Z7	X8	Y8	Z8	X9	Y9	Z9	X10	Y10	Z10	X11	Y11	Z11	X12	Y12	Z12	X13	Y13	Z13	X14	Y14	Z14	X15	Y15	Z15	X16	Y16	Z16	X17	Y17	Z17	X18	Y18	Z18	X19	Y19	Z19	X20	Y20	Z20	X21	Y21	Z21	X22	Y22	Z22	X23	Y23	Z23	X24	Y24	Z24	X25	Y25	Z25	X26	Y26	Z26	X27	Y27	Z27	X28	Y28	Z28	X29	Y29	Z29	X30	Y30	Z30	X31	Y31	Z31	X32	Y32	Z32	X33	Y33	Z33	X34	Y34	Z34	X35	Y35	Z35	X36	Y36	Z36	X37	Y37	Z37	X38	Y38	Z38	X39	Y39	Z39	X40	Y40	Z40	X41	Y41	Z41	X42	Y42	Z42	X43	Y43	Z43	X44	Y44	Z44	X45	Y45	Z45	X46	Y46	Z46	X47	Y47	Z47	X48	Y48	Z48	
500	2.5000	689.822838	1185.634320	10.992184	728.686824	1174.384376	-320.929477	739.991241	1286.471424	-144.775369	707.159399	1121.976732	-151.402094	503.773833	1018.531074	102.340374	649.990992	938.826048	-32.232072	527.054178	1073.480353	-486.351016	663.965958	929.355752	-415.256969	178.933079	1230.880924	-255.295691	348.180827	1123.488026	-384.463847	273.883978	1185.930309	-68.338849	330.479220	1069.646476	-343.107319	293.384149	1132.956583	-99.141221	214.995792	1262.768093	-223.579886	226.220358	1249.808374	-280.441499	240.098589	1131.120799	-30.838547	293.060433	1071.182883	-414.433206	307.290203	1012.541066	-9.685089	367.407407	947.502724	-7.236396	388.756378	860.673898	-14.200715	399.254764	962.890528	-26.360052	416.398856	754.096620	-32.422874	412.327281	732.223107	-141.987058	370.177304	635.556151	-16.808773	359.302764	551.846416	-40.368795	308.407174	481.873711	-50.883999	383.457752	549.042723	-74.025113	267.525260	409.046236	-62.866733	205.381321	379.086627	-116.819064	480.276603	352.651725	-89.397929	376.736723	336.490987	-29.400893	311.097828	957.349522	-415.066390	360.654976	886.465935	-404.882228	392.796922	898.996046	-391.633579	368.600985	797.471963	-398.898718	365.037198	677.737775	-376.022711	350.073621	670.137449	-258.503871	74.118187	442.264790	-373.176127	12.083269	479.849478	-327.448731	83.071543	294.343416	-395.651094	290.935365	597.432059	-400.350879	237.734816	531.889552	-379.143483	156.913318	494.472266	-381.114488	254.234392	517.642344	-346.148960	134.721129	225.013380	-336.770143	-203.779394	865.237309	-209.653609	-51.040965	80.705314	-410.972300	-51.190925	80.503203	-13.112440	
501	2.5050	688.538735	1184.821069	10.867176	728.202787	1173.628959	-320.948313	739.302244	1286.186354	-145.038647	706.602078	1121.666024	-151.979672	502.724106	1017.342756	101.757510	649.710346	938.495623	-32.304981	526.604867	1072.800126	-486.329464	663.991702	929.092943	-415.474400	178.816777	1229.306521	-256.094327	347.958201	1122.658139	-385.206760	273.457549	1183.410586	-68.878911	330.269158	1068.632582	-343.855536	293.026468	1130.569663	-99.873511	214.391220	1260.805494	-223.792946	225.665169	1248.304905	-280.747510	239.310366	1128.117519	-31.601114	293.440001	1070.856775	-415.326834	304.949055	1008.741437	-10.429843	364.466022	942.663854	-7.195804	384.628058	855.788824	-14.344358	396.027872	958.416501	-24.472785	412.430289	749.458965	-32.029359	409.185233	728.215884	-142.507970	366.978414	630.790584	-16.563448	357.376659	546.895032	-40.051297	307.535704	476.223470	-50.870616	380.453443	544.425038	-73.712218	268.232396	402.513696	-63.034765	206.163363	372.925229	-116.961225	480.837919	344.801701	-89.529609	377.186458	329.298539	-29.514003	312.245187	957.704204	-416.259960	362.702568	887.547655	-405.633566	394.434224	900.421052	-391.829501	371.922154	798.707009	-400.516175	369.588492	678.109404	-377.013920	353.672091	670.171980	-260.232140	75.064665	448.779183	-373.273030	13.325195	487.142632	-327.629322	82.997421	301.190434	-395.766790	293.831948	598.791915	-401.000071	239.427941	534.342740	-379.341201	157.868737	498.603999	-381.037305	255.562782	520.084453	-346.234142	134.087376	231.495578	-336.822393	-203.806695	865.193131	-209.809293	-51.045967	80.656306	-410.990646	-50.978851	80.474105	-13.387942	
502	2.5100	687.274179	1184.016506	10.512595	727.631643	1173.034087	-320.882721	738.633909	1286.011958	-145.375151	706.026828	1121.481189	-152.787245	501.766483	1016.160801	101.183205	649.545124	938.155031	-32.340913	526.253844	1072.157180	-486.356994	664.114195	928.844563	-415.695972	178.247951	1227.105166	-256.319473	347.794557	1121.752418	-386.007535	272.942998	1180.579764	-69.357934	330.081025	1067.526502	-344.497146	292.375062	1127.787668	-100.530011	213.777040	1258.684050	-224.036842	224.977346	1246.627664	-281.115418	238.305694	1125.030444	-32.328833	293.849161	1070.353520	-416.113957	302.854099	1004.563150	-10.982919	361.428287	937.854398	-7.183066	380.590736	850.955086	-14.507926	393.378425	953.415614	-23.521090	408.356531	744.871886	-31.788485	406.558883	724.176447	-142.611256	363.816950	626.007429	-16.209972	355.429735	541.858702	-39.527463	306.528462	470.633626	-50.764903	378.962995	539.587003	-72.847910	268.752856	396.032772	-63.048207	206.696496	366.979941	-116.982456	481.157642	337.016161	-89.592930	377.372900	322.091069	-29.689242	313.458592	957.773960	-417.209348	364.948031	888.401058	-406.403662	396.215693	901.705048	-391.863718	375.600892	799.593301	-402.092573	374.538948	678.636068	-378.120375	359.417314	669.652727	-262.029935	76.565822	455.373505	-373.478607	15.231132	494.609855	-327.909244	83.315607	307.961399	-395.981830	297.288571	600.275479	-401.670786	241.693619	537.137516	-379.746442	159.435055	502.852294	-381.125538	257.448332	522.378596	-346.034609	133.789989	237.849464	-336.837298	-203.836350	865.181246	-209.943971	-51.044159	80.622726	-411.005569	-50.938941	80.181400	-13.598144	
503	2.5150	685.982929	1183.829613	10.566805	727.058867	1172.315521	-320.862112	737.766688	1285.995509	-145.699275	705.427038	1121.394410	-153.004220	500.903239	1014.918947	100.469813	649.777743	938.242539	-32.288101	525.889831	1071.507310	-486.407910	664.409328	928.387687	-415.501203	177.881851	1224.958554	-256.988932	347.583504	1120.836093	-386.751898	272.426770	1177.844753	-69.838537	330.003551	1066.355200	-345.251981	292.230866	1125.297322	-101.197683	213.062338	1256.306322	-224.191723	224.331754	1244.813719	-281.536300	237.195633	1121.574680	-33.470187	294.188576	1069.628299	-416.701022	300.829550	1000.474086	-11.243771	358.214011	932.969905	-7.514286	376.717585	846.047893	-14.749877	390.809014	948.565222	-22.557578	404.312651	740.162706	-31.496430	406.158606	719.922861	-141.538141	360.607981	621.123331	-15.848689	353.349718	536.801134	-38.989646	305.375783	465.012690	-50.395760	377.328872	534.653349	-71.960723	269.058312	389.629547	-62.976128	207.008573	361.310774	-116.870775	481.393538	329.226459	-89.473398	377.354539	314.872261	-29.689003	314.907175	957.478301	-418.069767	367.463838	888.971683	-407.160376	398.236434	902.652055	-391.872108	379.696869	800.346651	-403.703977	380.019322	679.376616	-379.238690	365.220344	669.242611	-263.963534	78.485013	461.945637	-373.776791	17.477297	501.817511	-328.122589	83.903643	314.648990	-396.084318	301.527410	602.256823	-402.494247	244.749054	540.207540	-380.160932	161.910026	507.476536	-381.418426	260.101651	525.711864	-346.278518	133.752756	244.181896	-336.852208	-203.861699	865.178735	-210.033659	-51.049270	80.612237	-411.022367	-51.002117	80.440345	-13.392263	
504	2.5200	684.613211	1183.169225	9.967627	726.392497	1171.772624	-320.731198	736.860378	1286.117923	-146.015695	704.899664	1121.459914	-153.965034	500.829520	1013.807682	100.476869	649.639727	937.887069	-32.786482	525.554170	1070.817000	-486.490118	664.692151	928.150303	-415.701060	177.233455	1222.420362	-257.328390	347.298465	1119.786978	-387.520961	271.815525	1174.855634	-70.218835	330.003342	1065.011863	-346.024822	291.929490	1122.508317	-101.723532	212.324996	1253.707280	-224.442230	223.505080	1242.680934	-281.874456	236.111328	1117.976792	-34.355900	294.457012	1068.746122	-417.134973	298.618650	996.324088	-11.152177	355.763394	927.636684	-6.930719	372.995454	841.130288	-15.050343	387.300563	944.255978	-19.996054	400.266759	735.335743	-31.407479	401.452775	715.446904	-142.412212	357.443905	616.269375	-15.468085	351.015180	531.600117	-38.323981	304.036023	459.535159	-50.084387	375.652908	529.647592	-71.041636	269.207812	383.370213	-62.747041	207.066365	355.651156	-116.650181	481.012860	320.775998	-89.738579	377.067661	307.565664	-29.646506	316.522021	956.883229	-418.940956	370.365350	889.313205	-407.846285	400.608478	903.488545	-391.878638	384.435186	801.007937	-405.283760	385.859426	680.713581	-380.434078	371.691340	669.298236	-265.735500	80.772427	468.481428	-374.200534	20.175176	509.335658	-328.451436	84.694050	321.398899	-396.230977	306.335017	604.764373	-403.465430	248.560122	543.699583	-380.757143	165.165922	512.402279	-381.828739	263.657075	529.042226	-346.779137	133.945498	250.495003	-336.862836	-203.864177	865.185241	-210.118292	-51.032751	80.613004	-411.043322	-50.992085	80.418896	-13.398524	
505	2.5250	683.231678	1182.524689	9.339293	725.634067	1171.333916	-320.716182	735.759554	1286.355694	-146.332158	704.392704	1121.604609	-154.956739	500.095007	1012.408127	99.628556	649.690530	937.523516	-33.076179	525.326225	1070.116894	-486.671224	665.022206	927.913797	-415.959838	176.685133	1219.612853	-257.862245	347.016970	1118.651253	-388.310725	271.835343	1172.025361	-68.793847	330.074076	1063.457135	-346.752680	293.192424	1120.138556	-100.250553	211.535431	1250.925066	-224.713764	222.740846	1240.489897	-282.324579	235.328437	1114.401733	-34.927612	294.816151	1067.844486	-417.642669	296.544083	992.067208	-11.634807	353.274980	922.769602	-6.864277	369.494643	835.982158	-15.343609	384.863599	939.335455	-19.155647	396.405976	730.555925	-31.124445	399.153458	710.729501	-142.200197	354.313388	611.277883	-15.124117	348.813959	526.488210	-37.829066	302.700274	453.975044	-49.735816	373.952060	524.613677	-70.158895	269.037269	377.299497	-62.321191	206.852069	350.048852	-116.378186	480.679592	312.766261	-89.271283	376.469113	300.318251	-29.572290	318.376724	956.004583	-419.737627	373.659766	889.584558	-408.502493	403.291451	904.356626	-391.853724	389.711054	801.608448	-406.650165	392.158095	682.475263	-381.925938	378.750051	669.710734	-267.357245	83.448883	475.030432	-374.716556	23.134718	516.749406	-328.800445	85.926629	328.244229	-396.371670	311.530304	607.608751	-404.439256	252.781027	547.465732	-381.401484	169.016807	517.595082	-382.518843	267.539908	532.604778	-347.708206	134.543121	256.843814	-336.803688	-203.866468	865.194511	-210.173652	-51.023153	80.619328	-411.038253	-50.997350	80.440905	-13.371461	
